ffmpeg started on 2025-05-24 at 15:12:39
Report written to "D:\Convert\FFMetrics\reports\psnr_report-6.txt"
Log level: 32
Command line:
ffmpeg -hide_banner -nostdin -i "G:\\\xc0\xed\xe8\xec\xe5\\\xce\xed\xe3\xee\xe8\xed\xe3\xe8\\!_33_\xc7\xe8\xec\xe0_2024\\DreamCast\\\xcd\xe5\xf0\xe0\xe7\xf3\xec\xed\xfb\xe9 \xe0\xed\xe3\xe5\xeb \xe2 \xf2\xe0\xed\xf6\xe5 \xf1 \xe4\xe5\xec\xee\xed\xee\xec\\[DC] Oroka na Tenshi wa Akuma to Odoru - 08_Telegram_HEVC.mkv" -i "G:\\\xc0\xed\xe8\xec\xe5\\\xce\xed\xe3\xee\xe8\xed\xe3\xe8\\!_33_\xc7\xe8\xec\xe0_2024\\DreamCast\\\xcd\xe5\xf0\xe0\xe7\xf3\xec\xed\xfb\xe9 \xe0\xed\xe3\xe5\xeb \xe2 \xf2\xe0\xed\xf6\xe5 \xf1 \xe4\xe5\xec\xee\xed\xee\xec\\[DC] Oroka na Tenshi wa Akuma to Odoru - 08_Telegram.mp4" -lavfi "[0:v]settb=AVTB,setpts=PTS-STARTPTS,format=pix_fmts=yuv420p10,fps=24000/1001,scale=1920:1080:flags=bicubic[main];[1:v]settb=AVTB,setpts=PTS-STARTPTS,format=pix_fmts=yuv420p,fps=24000/1001,scale=1920:1080:flags=bicubic[ref];[main][ref]psnr=eof_action=endall:stats_file='D\\:/Convert/FFMetrics/logs/psnr_logfile-6.txt'" -f null -
Input #0, matroska,webm, from 'G:\Аниме\Онгоинги\!_33_Зима_2024\DreamCast\Неразумный ангел в танце с демоном\[DC] Oroka na Tenshi wa Akuma to Odoru - 08_Telegram_HEVC.mkv':
  Metadata:
    COMPATIBLE_BRANDS: isomiso2avc1mp41
    MAJOR_BRAND     : isom
    MINOR_VERSION   : 512
    ENCODER         : Lavf61.7.100
  Duration: 00:23:46.77, start: -0.021000, bitrate: 1181 kb/s
  Stream #0:0: Video: hevc (Main 10), yuv420p10le(tv, bt709, progressive), 1920x1080 [SAR 1:1 DAR 16:9], 23.98 fps, 23.98 tbr, 1k tbn (default)
      Metadata:
        HANDLER_NAME    : VideoHandler
        VENDOR_ID       : [0][0][0][0]
        ENCODER         : Lavc61.19.100 libx265
        BPS             : 985158
        DURATION        : 00:23:46.675708333
        NUMBER_OF_FRAMES: 34206
        NUMBER_OF_BYTES : 175687665
        _STATISTICS_WRITING_APP: mkvpropedit v66.0.0 ('Josie') 64-bit
        _STATISTICS_WRITING_DATE_UTC: 2025-05-23 16:06:51
        _STATISTICS_TAGS: BPS DURATION NUMBER_OF_FRAMES NUMBER_OF_BYTES
  Stream #0:1: Audio: aac (LC), 48000 Hz, stereo, fltp (default)
      Metadata:
        HANDLER_NAME    : SoundHandler
        VENDOR_ID       : [0][0][0][0]
        ENCODER         : Lavc61.19.100 aac
        BPS             : 192624
        DURATION        : 00:23:46.773000000
        NUMBER_OF_FRAMES: 66881
        NUMBER_OF_BYTES : 34353863
        _STATISTICS_WRITING_APP: mkvpropedit v66.0.0 ('Josie') 64-bit
        _STATISTICS_WRITING_DATE_UTC: 2025-05-23 16:06:51
        _STATISTICS_TAGS: BPS DURATION NUMBER_OF_FRAMES NUMBER_OF_BYTES
Input #1, mov,mp4,m4a,3gp,3g2,mj2, from 'G:\Аниме\Онгоинги\!_33_Зима_2024\DreamCast\Неразумный ангел в танце с демоном\[DC] Oroka na Tenshi wa Akuma to Odoru - 08_Telegram.mp4':
  Metadata:
    major_brand     : isom
    minor_version   : 512
    compatible_brands: isomiso2avc1mp41
    encoder         : Lavf60.16.100
  Duration: 00:23:46.74, start: 0.000000, bitrate: 3908 kb/s
  Stream #1:0[0x1](und): Video: h264 (High) (avc1 / 0x31637661), yuv420p(tv, bt709, progressive), 1920x1080 [SAR 1:1 DAR 16:9], 3760 kb/s, 23.98 fps, 23.98 tbr, 24k tbn (default)
      Metadata:
        handler_name    : VideoHandler
        vendor_id       : [0][0][0][0]
        encoder         : Lavc60.31.102 h264_qsv
  Stream #1:1[0x2](und): Audio: aac (HE-AACv2) (mp4a / 0x6134706D), 48000 Hz, stereo, fltp, 144 kb/s (default)
      Metadata:
        handler_name    : SoundHandler
        vendor_id       : [0][0][0][0]
Stream mapping:
  Stream #0:0 (hevc) -> settb:default
  Stream #1:0 (h264) -> settb:default
  psnr:default -> Stream #0:0 (wrapped_avframe)
  Stream #0:1 -> #0:1 (aac (native) -> pcm_s16le (native))
Output #0, null, to 'pipe:':
  Metadata:
    COMPATIBLE_BRANDS: isomiso2avc1mp41
    MAJOR_BRAND     : isom
    MINOR_VERSION   : 512
    encoder         : Lavf61.7.100
  Stream #0:0: Video: wrapped_avframe, yuv420p10le(tv, bt709, progressive), 1920x1080 [SAR 1:1 DAR 16:9], q=2-31, 200 kb/s, 23.98 fps, 23.98 tbn
      Metadata:
        encoder         : Lavc61.19.100 wrapped_avframe
  Stream #0:1: Audio: pcm_s16le, 48000 Hz, stereo, s16, 1536 kb/s (default)
      Metadata:
        HANDLER_NAME    : SoundHandler
        VENDOR_ID       : [0][0][0][0]
        _STATISTICS_TAGS: BPS DURATION NUMBER_OF_FRAMES NUMBER_OF_BYTES
        BPS             : 192624
        DURATION        : 00:23:46.773000000
        NUMBER_OF_FRAMES: 66881
        NUMBER_OF_BYTES : 34353863
        _STATISTICS_WRITING_APP: mkvpropedit v66.0.0 ('Josie') 64-bit
        _STATISTICS_WRITING_DATE_UTC: 2025-05-23 16:06:51
        encoder         : Lavc61.19.100 pcm_s16le
frame=  179 fps=0.0 q=-0.0 size=N/A time=00:00:07.46 bitrate=N/A speed=14.5x    frame=  434 fps=417 q=-0.0 size=N/A time=00:00:18.10 bitrate=N/A speed=17.4x    frame=  650 fps=421 q=-0.0 size=N/A time=00:00:27.11 bitrate=N/A speed=17.5x    frame=  853 fps=412 q=-0.0 size=N/A time=00:00:35.57 bitrate=N/A speed=17.2x    frame= 1061 fps=411 q=-0.0 size=N/A time=00:00:44.25 bitrate=N/A speed=17.2x    frame= 1272 fps=412 q=-0.0 size=N/A time=00:00:53.05 bitrate=N/A speed=17.2x    frame= 1496 fps=414 q=-0.0 size=N/A time=00:01:02.39 bitrate=N/A speed=17.3x    frame= 1711 fps=415 q=-0.0 size=N/A time=00:01:11.36 bitrate=N/A speed=17.3x    frame= 1868 fps=403 q=-0.0 size=N/A time=00:01:17.91 bitrate=N/A speed=16.8x    frame= 2058 fps=399 q=-0.0 size=N/A time=00:01:25.83 bitrate=N/A speed=16.6x    frame= 2315 fps=408 q=-0.0 size=N/A time=00:01:36.55 bitrate=N/A speed=  17x    frame= 2561 fps=414 q=-0.0 size=N/A time=00:01:46.81 bitrate=N/A speed=17.3x    frame= 2828 fps=421 q=-0.0 size=N/A time=00:01:57.95 bitrate=N/A speed=17.6x    frame= 3004 fps=416 q=-0.0 size=N/A time=00:02:05.29 bitrate=N/A speed=17.4x    frame= 3206 fps=415 q=-0.0 size=N/A time=00:02:13.71 bitrate=N/A speed=17.3x    frame= 3467 fps=420 q=-0.0 size=N/A time=00:02:24.60 bitrate=N/A speed=17.5x    frame= 3694 fps=421 q=-0.0 size=N/A time=00:02:34.07 bitrate=N/A speed=17.6x    frame= 3922 fps=423 q=-0.0 size=N/A time=00:02:43.58 bitrate=N/A speed=17.6x    frame= 4164 fps=425 q=-0.0 size=N/A time=00:02:53.67 bitrate=N/A speed=17.7x    frame= 4353 fps=422 q=-0.0 size=N/A time=00:03:01.55 bitrate=N/A speed=17.6x    frame= 4629 fps=428 q=-0.0 size=N/A time=00:03:13.06 bitrate=N/A speed=17.8x    frame= 4878 fps=430 q=-0.0 size=N/A time=00:03:23.45 bitrate=N/A speed=17.9x    frame= 5081 fps=428 q=-0.0 size=N/A time=00:03:31.92 bitrate=N/A speed=17.9x    frame= 5309 fps=429 q=-0.0 size=N/A time=00:03:41.42 bitrate=N/A speed=17.9x    frame= 5601 fps=434 q=-0.0 size=N/A time=00:03:53.60 bitrate=N/A speed=18.1x    frame= 5858 fps=437 q=-0.0 size=N/A time=00:04:04.32 bitrate=N/A speed=18.2x    frame= 6112 fps=439 q=-0.0 size=N/A time=00:04:14.92 bitrate=N/A speed=18.3x    frame= 6346 fps=439 q=-0.0 size=N/A time=00:04:24.68 bitrate=N/A speed=18.3x    frame= 6603 fps=442 q=-0.0 size=N/A time=00:04:35.40 bitrate=N/A speed=18.4x    frame= 6810 fps=440 q=-0.0 size=N/A time=00:04:44.03 bitrate=N/A speed=18.4x    frame= 7028 fps=440 q=-0.0 size=N/A time=00:04:53.12 bitrate=N/A speed=18.3x    frame= 7299 fps=442 q=-0.0 size=N/A time=00:05:04.42 bitrate=N/A speed=18.5x    frame= 7543 fps=443 q=-0.0 size=N/A time=00:05:14.60 bitrate=N/A speed=18.5x    frame= 7788 fps=444 q=-0.0 size=N/A time=00:05:24.82 bitrate=N/A speed=18.5x    frame= 8040 fps=446 q=-0.0 size=N/A time=00:05:35.33 bitrate=N/A speed=18.6x    frame= 8323 fps=448 q=-0.0 size=N/A time=00:05:47.13 bitrate=N/A speed=18.7x    frame= 8576 fps=450 q=-0.0 size=N/A time=00:05:57.69 bitrate=N/A speed=18.8x    frame= 8779 fps=448 q=-0.0 size=N/A time=00:06:06.15 bitrate=N/A speed=18.7x    frame= 8950 fps=445 q=-0.0 size=N/A time=00:06:13.28 bitrate=N/A speed=18.6x    frame= 9204 fps=446 q=-0.0 size=N/A time=00:06:23.88 bitrate=N/A speed=18.6x    frame= 9485 fps=449 q=-0.0 size=N/A time=00:06:35.60 bitrate=N/A speed=18.7x    frame= 9732 fps=449 q=-0.0 size=N/A time=00:06:45.90 bitrate=N/A speed=18.7x    frame=10001 fps=451 q=-0.0 size=N/A time=00:06:57.12 bitrate=N/A speed=18.8x    frame=10239 fps=451 q=-0.0 size=N/A time=00:07:07.05 bitrate=N/A speed=18.8x    frame=10462 fps=451 q=-0.0 size=N/A time=00:07:16.35 bitrate=N/A speed=18.8x    frame=10743 fps=453 q=-0.0 size=N/A time=00:07:28.07 bitrate=N/A speed=18.9x    frame=10988 fps=453 q=-0.0 size=N/A time=00:07:38.29 bitrate=N/A speed=18.9x    frame=11232 fps=454 q=-0.0 size=N/A time=00:07:48.46 bitrate=N/A speed=18.9x    frame=11474 fps=454 q=-0.0 size=N/A time=00:07:58.56 bitrate=N/A speed=18.9x    frame=11702 fps=454 q=-0.0 size=N/A time=00:08:08.07 bitrate=N/A speed=18.9x    frame=11949 fps=454 q=-0.0 size=N/A time=00:08:18.37 bitrate=N/A speed=18.9x    frame=12191 fps=455 q=-0.0 size=N/A time=00:08:28.46 bitrate=N/A speed=  19x    frame=12421 fps=455 q=-0.0 size=N/A time=00:08:38.05 bitrate=N/A speed=  19x    frame=12685 fps=456 q=-0.0 size=N/A time=00:08:49.07 bitrate=N/A speed=  19x    frame=12975 fps=457 q=-0.0 size=N/A time=00:09:01.16 bitrate=N/A speed=19.1x    frame=13233 fps=458 q=-0.0 size=N/A time=00:09:11.92 bitrate=N/A speed=19.1x    frame=13500 fps=459 q=-0.0 size=N/A time=00:09:23.06 bitrate=N/A speed=19.2x    frame=13771 fps=460 q=-0.0 size=N/A time=00:09:34.36 bitrate=N/A speed=19.2x    frame=14034 fps=461 q=-0.0 size=N/A time=00:09:45.33 bitrate=N/A speed=19.2x    frame=14310 fps=462 q=-0.0 size=N/A time=00:09:56.84 bitrate=N/A speed=19.3x    frame=14570 fps=463 q=-0.0 size=N/A time=00:10:07.69 bitrate=N/A speed=19.3x    frame=14832 fps=464 q=-0.0 size=N/A time=00:10:18.61 bitrate=N/A speed=19.4x    frame=15099 fps=465 q=-0.0 size=N/A time=00:10:29.75 bitrate=N/A speed=19.4x    frame=15335 fps=465 q=-0.0 size=N/A time=00:10:39.59 bitrate=N/A speed=19.4x    frame=15602 fps=466 q=-0.0 size=N/A time=00:10:50.73 bitrate=N/A speed=19.4x    frame=15856 fps=466 q=-0.0 size=N/A time=00:11:01.32 bitrate=N/A speed=19.4x    frame=16115 fps=466 q=-0.0 size=N/A time=00:11:12.12 bitrate=N/A speed=19.5x    frame=16384 fps=467 q=-0.0 size=N/A time=00:11:23.34 bitrate=N/A speed=19.5x    frame=16644 fps=468 q=-0.0 size=N/A time=00:11:34.19 bitrate=N/A speed=19.5x    frame=16916 fps=469 q=-0.0 size=N/A time=00:11:45.53 bitrate=N/A speed=19.5x    frame=17189 fps=470 q=-0.0 size=N/A time=00:11:56.92 bitrate=N/A speed=19.6x    frame=17424 fps=469 q=-0.0 size=N/A time=00:12:06.72 bitrate=N/A speed=19.6x    frame=17693 fps=470 q=-0.0 size=N/A time=00:12:17.94 bitrate=N/A speed=19.6x    frame=17921 fps=470 q=-0.0 size=N/A time=00:12:27.45 bitrate=N/A speed=19.6x    frame=18210 fps=471 q=-0.0 size=N/A time=00:12:39.50 bitrate=N/A speed=19.6x    frame=18467 fps=471 q=-0.0 size=N/A time=00:12:50.22 bitrate=N/A speed=19.6x    frame=18724 fps=471 q=-0.0 size=N/A time=00:13:00.94 bitrate=N/A speed=19.7x    frame=19004 fps=472 q=-0.0 size=N/A time=00:13:12.62 bitrate=N/A speed=19.7x    frame=19274 fps=473 q=-0.0 size=N/A time=00:13:23.88 bitrate=N/A speed=19.7x    frame=19558 fps=474 q=-0.0 size=N/A time=00:13:35.73 bitrate=N/A speed=19.8x    frame=19812 fps=474 q=-0.0 size=N/A time=00:13:46.32 bitrate=N/A speed=19.8x    frame=20070 fps=475 q=-0.0 size=N/A time=00:13:57.08 bitrate=N/A speed=19.8x    frame=20322 fps=475 q=-0.0 size=N/A time=00:14:07.59 bitrate=N/A speed=19.8x    frame=20550 fps=474 q=-0.0 size=N/A time=00:14:17.10 bitrate=N/A speed=19.8x    frame=20759 fps=473 q=-0.0 size=N/A time=00:14:25.82 bitrate=N/A speed=19.7x    frame=20976 fps=473 q=-0.0 size=N/A time=00:14:34.87 bitrate=N/A speed=19.7x    frame=21234 fps=473 q=-0.0 size=N/A time=00:14:45.63 bitrate=N/A speed=19.7x    frame=21514 fps=474 q=-0.0 size=N/A time=00:14:57.31 bitrate=N/A speed=19.8x    frame=21773 fps=474 q=-0.0 size=N/A time=00:15:08.11 bitrate=N/A speed=19.8x    frame=22015 fps=474 q=-0.0 size=N/A time=00:15:18.20 bitrate=N/A speed=19.8x    frame=22273 fps=474 q=-0.0 size=N/A time=00:15:28.96 bitrate=N/A speed=19.8x    frame=22527 fps=475 q=-0.0 size=N/A time=00:15:39.56 bitrate=N/A speed=19.8x    frame=22771 fps=475 q=-0.0 size=N/A time=00:15:49.74 bitrate=N/A speed=19.8x    frame=23052 fps=475 q=-0.0 size=N/A time=00:16:01.46 bitrate=N/A speed=19.8x    frame=23279 fps=475 q=-0.0 size=N/A time=00:16:10.92 bitrate=N/A speed=19.8x    frame=23464 fps=474 q=-0.0 size=N/A time=00:16:18.64 bitrate=N/A speed=19.8x    frame=23701 fps=474 q=-0.0 size=N/A time=00:16:28.52 bitrate=N/A speed=19.8x    frame=23922 fps=473 q=-0.0 size=N/A time=00:16:37.74 bitrate=N/A speed=19.7x    frame=24154 fps=473 q=-0.0 size=N/A time=00:16:47.42 bitrate=N/A speed=19.7x    frame=24340 fps=472 q=-0.0 size=N/A time=00:16:55.18 bitrate=N/A speed=19.7x    frame=24561 fps=471 q=-0.0 size=N/A time=00:17:04.39 bitrate=N/A speed=19.7x    frame=24812 fps=472 q=-0.0 size=N/A time=00:17:14.86 bitrate=N/A speed=19.7x    frame=25081 fps=472 q=-0.0 size=N/A time=00:17:26.08 bitrate=N/A speed=19.7x    frame=25310 fps=472 q=-0.0 size=N/A time=00:17:35.63 bitrate=N/A speed=19.7x    frame=25563 fps=472 q=-0.0 size=N/A time=00:17:46.19 bitrate=N/A speed=19.7x    frame=25828 fps=472 q=-0.0 size=N/A time=00:17:57.24 bitrate=N/A speed=19.7x    frame=26072 fps=472 q=-0.0 size=N/A time=00:18:07.41 bitrate=N/A speed=19.7x    frame=26297 fps=472 q=-0.0 size=N/A time=00:18:16.80 bitrate=N/A speed=19.7x    frame=26522 fps=472 q=-0.0 size=N/A time=00:18:26.18 bitrate=N/A speed=19.7x    frame=26766 fps=472 q=-0.0 size=N/A time=00:18:36.36 bitrate=N/A speed=19.7x    frame=27013 fps=472 q=-0.0 size=N/A time=00:18:46.66 bitrate=N/A speed=19.7x    frame=27264 fps=472 q=-0.0 size=N/A time=00:18:57.13 bitrate=N/A speed=19.7x    frame=27519 fps=472 q=-0.0 size=N/A time=00:19:07.77 bitrate=N/A speed=19.7x    frame=27724 fps=471 q=-0.0 size=N/A time=00:19:16.32 bitrate=N/A speed=19.7x    frame=27968 fps=471 q=-0.0 size=N/A time=00:19:26.49 bitrate=N/A speed=19.7x    frame=28198 fps=471 q=-0.0 size=N/A time=00:19:36.09 bitrate=N/A speed=19.7x    frame=28456 fps=471 q=-0.0 size=N/A time=00:19:46.85 bitrate=N/A speed=19.7x    frame=28662 fps=471 q=-0.0 size=N/A time=00:19:55.44 bitrate=N/A speed=19.6x    frame=28901 fps=471 q=-0.0 size=N/A time=00:20:05.41 bitrate=N/A speed=19.6x    frame=29133 fps=471 q=-0.0 size=N/A time=00:20:15.08 bitrate=N/A speed=19.6x    frame=29399 fps=471 q=-0.0 size=N/A time=00:20:26.18 bitrate=N/A speed=19.6x    frame=29624 fps=471 q=-0.0 size=N/A time=00:20:35.56 bitrate=N/A speed=19.6x    frame=29859 fps=471 q=-0.0 size=N/A time=00:20:45.36 bitrate=N/A speed=19.6x    frame=30120 fps=471 q=-0.0 size=N/A time=00:20:56.25 bitrate=N/A speed=19.6x    frame=30391 fps=471 q=-0.0 size=N/A time=00:21:07.55 bitrate=N/A speed=19.7x    frame=30676 fps=472 q=-0.0 size=N/A time=00:21:19.44 bitrate=N/A speed=19.7x    frame=30943 fps=472 q=-0.0 size=N/A time=00:21:30.58 bitrate=N/A speed=19.7x    frame=31161 fps=472 q=-0.0 size=N/A time=00:21:39.67 bitrate=N/A speed=19.7x    frame=31409 fps=472 q=-0.0 size=N/A time=00:21:50.01 bitrate=N/A speed=19.7x    frame=31637 fps=472 q=-0.0 size=N/A time=00:21:59.52 bitrate=N/A speed=19.7x    frame=31844 fps=471 q=-0.0 size=N/A time=00:22:08.16 bitrate=N/A speed=19.7x    frame=32070 fps=471 q=-0.0 size=N/A time=00:22:17.58 bitrate=N/A speed=19.6x    frame=32303 fps=471 q=-0.0 size=N/A time=00:22:27.30 bitrate=N/A speed=19.6x    frame=32520 fps=470 q=-0.0 size=N/A time=00:22:36.35 bitrate=N/A speed=19.6x    frame=32750 fps=470 q=-0.0 size=N/A time=00:22:45.94 bitrate=N/A speed=19.6x    frame=32967 fps=470 q=-0.0 size=N/A time=00:22:54.99 bitrate=N/A speed=19.6x    frame=33173 fps=469 q=-0.0 size=N/A time=00:23:03.59 bitrate=N/A speed=19.6x    frame=33408 fps=469 q=-0.0 size=N/A time=00:23:13.39 bitrate=N/A speed=19.6x    frame=33672 fps=470 q=-0.0 size=N/A time=00:23:24.40 bitrate=N/A speed=19.6x    frame=33902 fps=469 q=-0.0 size=N/A time=00:23:33.99 bitrate=N/A speed=19.6x    frame=34167 fps=470 q=-0.0 size=N/A time=00:23:45.04 bitrate=N/A speed=19.6x    [Parsed_psnr_10 @ 000001b8559c7cc0] PSNR y:48.264636 u:50.490779 v:50.151507 average:48.847409 min:41.930870 max:inf
[out#0/null @ 000001b84df0f580] video:14698KiB audio:267524KiB subtitle:0KiB other streams:0KiB global headers:0KiB muxing overhead: unknown
frame=34206 fps=470 q=-0.0 Lsize=N/A time=00:23:46.67 bitrate=N/A speed=19.6x    
